HIERARCHY
ROOT Hips
{
	OFFSET	0.00	0.00	0.00
	CHANNELS 6 Xposition Yposition Zposition Zrotation Xrotation Yrotation
	JOINT LeftUpLeg
	{
		OFFSET	 0.126116	-0.014019	-0.065224
		CHANNELS 3 Zrotation Xrotation Yrotation
		JOINT LeftLeg
		{
			OFFSET	 0.000000	 0.000000	 0.569914
			CHANNELS 3 Zrotation Xrotation Yrotation
			JOINT LeftFoot
			{
				OFFSET	 0.000000	 0.000000	 0.544423
				CHANNELS 3 Zrotation Xrotation Yrotation
				JOINT LeftToeBase
				{
					OFFSET	 0.000000	 0.000000	 0.207117
					CHANNELS 3 Zrotation Xrotation Yrotation
					End Site
					{
						OFFSET	 0.000000	 0.000000	 0.207117
					}
				}
			}
		}
	}
	JOINT RightUpLeg
	{
		OFFSET	-0.124023	-0.008373	-0.065224
		CHANNELS 3 Zrotation Xrotation Yrotation
		JOINT RightLeg
		{
			OFFSET	 0.000000	 0.000000	 0.570047
			CHANNELS 3 Zrotation Xrotation Yrotation
			JOINT RightFoot
			{
				OFFSET	 0.000000	 0.000000	 0.544354
				CHANNELS 3 Zrotation Xrotation Yrotation
				JOINT RightToeBase
				{
					OFFSET	 0.000000	 0.000000	 0.207540
					CHANNELS 3 Zrotation Xrotation Yrotation
					End Site
					{
						OFFSET	 0.000000	 0.000000	 0.207540
					}
				}
			}
		}
	}
	JOINT Spine
	{
		OFFSET	 0.000184	-0.007763	 0.117403
		CHANNELS 3 Zrotation Xrotation Yrotation
		JOINT Spine1
		{
			OFFSET	 0.000000	 0.000000	 0.137269
			CHANNELS 3 Zrotation Xrotation Yrotation
			JOINT Spine2
			{
				OFFSET	 0.000000	 0.000000	 0.156879
				CHANNELS 3 Zrotation Xrotation Yrotation
				JOINT LeftShoulder
				{
					OFFSET	 0.080501	-0.002496	 0.160144
					CHANNELS 3 Zrotation Xrotation Yrotation
					JOINT LeftArm
					{
						OFFSET	 0.000000	 0.000000	 0.164363
						CHANNELS 3 Zrotation Xrotation Yrotation
						JOINT LeftForeArm
						{
							OFFSET	 0.000000	 0.000000	 0.364576
							CHANNELS 3 Zrotation Xrotation Yrotation
							JOINT LeftHand
							{
								OFFSET	 0.000000	 0.000000	 0.360812
								CHANNELS 3 Zrotation Xrotation Yrotation
								JOINT LeftHandIndex1
								{
									OFFSET	 0.000000	 0.000000	 0.086006
									CHANNELS 3 Zrotation Xrotation Yrotation
									JOINT LeftHandIndex2
									{
										OFFSET	 0.000000	 0.000000	 0.047236
										CHANNELS 3 Zrotation Xrotation Yrotation
										JOINT LeftHandIndex3
										{
											OFFSET	-0.004284	-0.000551	 0.038166
											CHANNELS 3 Zrotation Xrotation Yrotation
											End Site
											{
												OFFSET	-0.004284	-0.000551	 0.038166
											}
										}
									}
								}
							}
						}
					}
				}
				JOINT Neck
				{
					OFFSET	 0.000000	 0.000000	 0.176489
					CHANNELS 3 Zrotation Xrotation Yrotation
					JOINT Head
					{
						OFFSET	 0.000000	-0.001747	 0.077940
						CHANNELS 3 Zrotation Xrotation Yrotation
						End Site
						{
							OFFSET	 0.000000	-0.001747	 0.077940
						}
					}
				}
				JOINT RightShoulder
				{
					OFFSET	-0.080363	 0.000306	 0.159706
					CHANNELS 3 Zrotation Xrotation Yrotation
					JOINT RightArm
					{
						OFFSET	 0.000000	 0.000000	 0.164196
						CHANNELS 3 Zrotation Xrotation Yrotation
						JOINT RightForeArm
						{
							OFFSET	 0.000000	 0.000000	 0.365611
							CHANNELS 3 Zrotation Xrotation Yrotation
							JOINT RightHand
							{
								OFFSET	 0.000000	 0.000000	 0.360648
								CHANNELS 3 Zrotation Xrotation Yrotation
								JOINT RightHandIndex1
								{
									OFFSET	 0.000000	 0.000000	 0.069977
									CHANNELS 3 Zrotation Xrotation Yrotation
									JOINT RightHandIndex2
									{
										OFFSET	 0.000000	 0.000000	 0.052305
										CHANNELS 3 Zrotation Xrotation Yrotation
										JOINT RightHandIndex3
										{
											OFFSET	 0.009002	-0.000782	 0.042196
											CHANNELS 3 Zrotation Xrotation Yrotation
											End Site
											{
												OFFSET	 0.009002	-0.000782	 0.042196
											}
										}
									}
								}
							}
						}
					}
				}
			}
		}
	}
}
MOTION
Frames:    13
Frame Time: 0.03333334
 0.000294	 0.019716	 1.271194	-0.002565	 0.004446	 0.174525	-11.170620	-1.814696	 179.516100	 1.464838	-12.614410	-0.737663	-4.421670	 71.844220	-1.973992	-2.385833	 28.452760	 0.000004	 11.013080	-1.914808	-179.752400	-1.456715	-12.214050	 0.700395	 4.246078	 71.462630	 1.962627	 2.384658	 28.388730	 0.000004	-4.235500	 2.589315	 0.280827	-2.141183	 4.127437	-0.770550	 6.479866	-5.095490	 1.433911	-91.776160	 78.527450	 180.000000	 71.024360	 45.170090	-54.272060	-7.853242	 3.757177	-9.429966	-30.204770	-10.792320	-4.428236	-2.635965	 4.993658	 6.788941	-5.165319	 0.784187	 3.516649	-5.225038	 0.466231	 0.424329	-0.000002	-3.783157	-0.089647	 6.284128	 4.359300	-0.239429	 89.782160	 78.203890	 179.999900	-64.801860	 42.171280	 56.276370	 7.410923	 4.623354	 10.710670	 30.379690	-11.659760	 9.021759	 6.112037	 4.509576	-0.364401	 4.968462	 1.518543	-9.347576	 5.168945	 0.703820	 2.021906
 0.000294	 0.019716	 1.271210	-0.002411	 0.004702	 0.174402	-11.190810	-1.812187	 179.517500	 1.464904	-12.609290	-0.737355	-4.419976	 71.841450	-1.975581	-2.385833	 28.452760	 0.000004	 11.033320	-1.912446	-179.753500	-1.456768	-12.209240	 0.700114	 4.244991	 71.460060	 1.963927	 2.384658	 28.388730	 0.000004	-4.213735	 2.561656	 0.276039	-2.131700	 4.223226	-0.759993	 6.450462	-5.220760	 1.435520	-91.776150	 78.527490	 180.000000	 71.059950	 45.192090	-54.248170	-7.851001	 3.761008	-9.439720	-30.208150	-10.835650	-4.428857	-2.635965	 4.993658	 6.788941	-5.165319	 0.784187	 3.516649	-5.225038	 0.466231	 0.424329	-0.000002	-3.783157	-0.089647	 6.250498	 4.304903	-0.235171	 89.782160	 78.203900	 179.999900	-64.788370	 42.146050	 56.319830	 7.334344	 4.600182	 10.697010	 30.349470	-11.739240	 9.000076	 6.112037	 4.509576	-0.364401	 4.968462	 1.518543	-9.347576	 5.168945	 0.703820	 2.021906
 0.000281	 0.019717	 1.271319	-0.001502	 0.006166	 0.170144	-11.307060	-1.793715	 179.528000	 1.465418	-12.570270	-0.734998	-4.408826	 71.820820	-1.986122	-2.385833	 28.452760	 0.000004	 11.150570	-1.901378	-179.757000	-1.457032	-12.188000	 0.698859	 4.239955	 71.448330	 1.970694	 2.384658	 28.388730	 0.000004	-4.021255	 2.405172	 0.247327	-2.042759	 4.764983	-0.688644	 6.176903	-5.936213	 1.418497	-91.776120	 78.527490	 179.999900	 71.261720	 45.328800	-54.131080	-7.837652	 3.766293	-9.453124	-30.231340	-11.128950	-4.433279	-2.635965	 4.993658	 6.788941	-5.165319	 0.784187	 3.516649	-5.225038	 0.466231	 0.424329	-0.000002	-3.783157	-0.089647	 5.956947	 4.008499	-0.208664	 89.782130	 78.203920	 180.000000	-64.863380	 41.606670	 57.016080	 6.631144	 4.272536	 10.294610	 30.477840	-12.567730	 8.710002	 6.112037	 4.509576	-0.364401	 4.968462	 1.518543	-9.347576	 5.168945	 0.703820	 2.021906
 0.000258	 0.019719	 1.271440	-0.000664	 0.007359	 0.161264	-11.397230	-1.772718	 179.540600	 1.466027	-12.523880	-0.732196	-4.381003	 71.796780	-2.001293	-2.385833	 28.452760	 0.000004	 11.265480	-1.895123	-179.756600	-1.457148	-12.178940	 0.698322	 4.251197	 71.442760	 1.972014	 2.384658	 28.388730	 0.000004	-3.758103	 2.273566	 0.221595	-1.915702	 5.220891	-0.612879	 5.788732	-6.547750	 1.363661	-91.776200	 78.527450	 180.000000	 71.429290	 45.460410	-54.054780	-7.826068	 3.746833	-9.403708	-30.256690	-11.449460	-4.438251	-2.635965	 4.993658	 6.788941	-5.165319	 0.784187	 3.516649	-5.225038	 0.466231	 0.424329	-0.000002	-3.783157	-0.089647	 5.559438	 3.773872	-0.183312	 89.782200	 78.203900	 179.999900	-64.718720	 41.008960	 57.983100	 5.853630	 3.799909	 9.538521	 30.637600	-13.435820	 8.417452	 6.112037	 4.509576	-0.364401	 4.968462	 1.518543	-9.347576	 5.168945	 0.703820	 2.021906
 0.000225	 0.019722	 1.271573	 0.000074	 0.008287	 0.147932	-11.496630	-1.748881	 179.557800	 1.466720	-12.470770	-0.728993	-4.370698	 71.769170	-2.012114	-2.385833	 28.452760	 0.000004	 11.364280	-1.893627	-179.751500	-1.457115	-12.181530	 0.698477	 4.247539	 71.443240	 1.976050	 2.384658	 28.388730	 0.000004	-3.425740	 2.155722	 0.198110	-1.751140	 5.629908	-0.531403	 5.288561	-7.103873	 1.273458	-91.776250	 78.527450	-180.000000	 71.571780	 45.592040	-54.000870	-7.815449	 3.705888	-9.299718	-30.285470	-11.812350	-4.444043	-2.635965	 4.993658	 6.788941	-5.165319	 0.784187	 3.516649	-5.225038	 0.466231	 0.424329	-0.000002	-3.783157	-0.089647	 5.059850	 3.574852	-0.158016	 89.782140	 78.203850	 179.999900	-64.175270	 40.260490	 58.882880	 4.888337	 3.415563	 9.025922	 30.651390	-14.387150	 8.047326	 6.112037	 4.509576	-0.364401	 4.968462	 1.518543	-9.347576	 5.168945	 0.703820	 2.021906
 0.000174	 0.019729	 1.271730	 0.000782	 0.008978	 0.127011	-11.610010	-1.717998	 179.582300	 1.467627	-12.401000	-0.724781	-4.358082	 71.733040	-2.025300	-2.385833	 28.452760	 0.000004	 11.477570	-1.897924	-179.741300	-1.456885	-12.199940	 0.699565	 4.245270	 71.451660	 1.978669	 2.384658	 28.388730	 0.000004	-2.955729	 2.034874	 0.174067	-1.513590	 6.050876	-0.430701	 4.570276	-7.683749	 1.124064	-91.776120	 78.527450	 179.999900	 71.697520	 45.740580	-53.949370	-7.804117	 3.633381	-9.115718	-30.323680	-12.293490	-4.452023	-2.635965	 4.993658	 6.788941	-5.165319	 0.784187	 3.516649	-5.225038	 0.466231	 0.424329	-0.000002	-3.783157	-0.089647	 4.356090	 3.381435	-0.128654	 89.782210	 78.203890	 179.999900	-62.620370	 38.994990	 58.880840	 3.316752	 3.627792	 10.419830	 30.297510	-15.646680	 7.409903	 6.112037	 4.509576	-0.364401	 4.968462	 1.518543	-9.347576	 5.168945	 0.703820	 2.021906
 0.000120	 0.019743	 1.271869	 0.001201	 0.009150	 0.104681	-11.706490	-1.689994	 179.607200	 1.468451	-12.337120	-0.720929	-4.347277	 71.700100	-2.036581	-2.385833	 28.452760	 0.000004	 11.574580	-1.907433	-179.729200	-1.456509	-12.230400	 0.701364	 4.245366	 71.466350	 1.978812	 2.384658	 28.388730	 0.000004	-2.485525	 1.946522	 0.156633	-1.271965	 6.360719	-0.340749	 3.843140	-8.115316	 0.958512	-91.776120	 78.527420	 180.000000	 71.766830	 45.862770	-53.905280	-7.892922	 3.549564	-8.903129	-30.261480	-12.746870	-4.444033	-2.635965	 4.993658	 6.788941	-5.165319	 0.784187	 3.516649	-5.225038	 0.466231	 0.424329	-0.000002	-3.783157	-0.089647	 3.654106	 3.246455	-0.103599	 89.782060	 78.203900	-180.000000	-60.402260	 37.534370	 58.633940	 1.440644	 3.901046	 12.461540	 29.479760	-16.913680	 6.514104	 6.112037	 4.509576	-0.364401	 4.968462	 1.518543	-9.347576	 5.168945	 0.703820	 2.021906
 0.000025	 0.019770	 1.272080	 0.001766	 0.011890	 0.083526	-11.816460	-1.648576	 179.627900	 1.469683	-12.241280	-0.715152	-4.336062	 71.650760	-2.048042	-2.385833	 28.452760	 0.000004	 11.684680	-1.920970	-179.717800	-1.456083	-12.263960	 0.703348	 4.248604	 71.482510	 1.975532	 2.384658	 28.388730	 0.000004	-1.884797	 1.863126	 0.131828	-0.959278	 6.646022	-0.237093	 2.905693	-8.516511	 0.731978	-91.776170	 78.527450	 180.000000	 71.785700	 45.986800	-53.894540	-7.916877	 3.394049	-8.509147	-30.280180	-13.331720	-4.450055	-2.635965	 4.993658	 6.788941	-5.165319	 0.784187	 3.516649	-5.225038	 0.466231	 0.424329	-0.000002	-3.783157	-0.089647	 2.759453	 3.127696	-0.075364	 89.782090	 78.203890	 180.000000	-57.277310	 35.816080	 60.357960	-0.729316	 3.222802	 11.896640	 28.306680	-18.317300	 5.382763	 6.112037	 4.509576	-0.364401	 4.968462	 1.518543	-9.347576	 5.168945	 0.703820	 2.021906
-0.000077	 0.019798	 1.272224	 0.001960	 0.015162	 0.062366	-11.920490	-1.604884	 179.647400	 1.470981	-12.139430	-0.709021	-4.324809	 71.598410	-2.059581	-2.385833	 28.452760	 0.000004	 11.789520	-1.935666	-179.705800	-1.455650	-12.298690	 0.705401	 4.252726	 71.499220	 1.971339	 2.384658	 28.388730	 0.000004	-1.262729	 1.759570	 0.141531	-0.628318	 6.927163	-0.198032	 1.933169	-8.832258	 0.514989	-91.776170	 78.527450	 180.000000	 71.732890	 46.082870	-53.885470	-7.943916	 3.207378	-8.037007	-30.300370	-13.940860	-4.456920	-2.635965	 4.993658	 6.788941	-5.165319	 0.784187	 3.516649	-5.225038	 0.466231	 0.424329	-0.000002	-3.783157	-0.089647	 1.835085	 3.049075	-0.048858	 89.782120	 78.203900	 180.000000	-53.629820	 33.835040	 62.564000	-2.888117	 2.487940	 10.831730	 26.852710	-19.564540	 4.180355	 6.112037	 4.509576	-0.364401	 4.968462	 1.518543	-9.347576	 5.168945	 0.703820	 2.021906
-0.000172	 0.019823	 1.272173	 0.001531	 0.016505	 0.035201	-12.026870	-1.567244	 179.674600	 1.472083	-12.051640	-0.703739	-4.314566	 71.553420	-2.070036	-2.385833	 28.452760	 0.000004	 11.898310	-1.958540	-179.690200	-1.454913	-12.356880	 0.708844	 4.259370	 71.527890	 1.964480	 2.384658	 28.388730	 0.000004	-0.585034	 1.723205	 0.109797	-0.270974	 7.049595	-0.070820	 0.862165	-9.001949	 0.225789	-91.776230	 78.527430	-180.000000	 71.581380	 46.146510	-53.815840	-7.971489	 3.005924	-7.528152	-30.323550	-14.618710	-4.465307	-2.635965	 4.993658	 6.788941	-5.165319	 0.784187	 3.516649	-5.225038	 0.466231	 0.424329	-0.000002	-3.783157	-0.089647	 0.829777	 3.002902	-0.021764	 89.782140	 78.203870	 180.000000	-48.693550	 31.219350	 63.461430	-5.334851	 2.329563	 12.564430	 24.982200	-20.725230	 2.819174	 6.112037	 4.509576	-0.364401	 4.968462	 1.518543	-9.347576	 5.168945	 0.703820	 2.021906
-0.000241	 0.019841	 1.271974	-0.000351	 0.017550	 0.008094	-12.126080	-1.532556	 179.703000	 1.473102	-11.970090	-0.698835	-4.301907	 71.511640	-2.083189	-2.385833	 28.452760	 0.000004	 12.002940	-1.975078	-179.674000	-1.454336	-12.402130	 0.711525	 4.263041	 71.549740	 1.960834	 2.384658	 28.388730	 0.000004	 0.074216	 1.715570	 0.080455	 0.077841	 7.077720	 0.047649	-0.179897	-9.041104	-0.057598	-91.776190	 78.527470	-180.000000	 71.348050	 46.172860	-53.722220	-7.999729	 2.784085	-6.968838	-30.347530	-15.300040	-4.474501	-2.635965	 4.993658	 6.788941	-5.165319	 0.784187	 3.516649	-5.225038	 0.466231	 0.424329	-0.000002	-3.783157	-0.089647	-0.146155	 2.991695	 0.003803	 89.782170	 78.203850	 179.999900	-43.536120	 28.616540	 65.828120	-7.687580	 1.710508	 12.016020	 22.886540	-21.674250	 1.442264	 6.112037	 4.509576	-0.364401	 4.968462	 1.518543	-9.347576	 5.168945	 0.703820	 2.021906
-0.000313	 0.019821	 1.271625	-0.001034	 0.017868	-0.026102	-12.226730	-1.496876	 179.738700	 1.474167	-11.884340	-0.693681	-4.287501	 71.467610	-2.098300	-2.385833	 28.452760	 0.000004	 12.106840	-1.993012	-179.652400	-1.453666	-12.454780	 0.714643	 4.264997	 71.575340	 1.959079	 2.384658	 28.388730	 0.000004	 0.732551	 1.734824	 0.054425	 0.424295	 7.019418	 0.176657	-1.221209	-8.959604	-0.344821	-91.776180	 78.527470	 180.000000	 71.002840	 46.152180	-53.525880	-8.024972	 2.569492	-6.428638	-30.373030	-16.011810	-4.484917	-2.635965	 4.993658	 6.788941	-5.165319	 0.784187	 3.516649	-5.225038	 0.466231	 0.424329	-0.000002	-3.783157	-0.089647	-1.121710	 3.012162	 0.029479	 89.782160	 78.203900	 179.999900	-37.946460	 26.087360	 68.341030	-10.173530	 1.140831	 11.687820	 20.642250	-22.411730	 0.063001	 6.112037	 4.509576	-0.364401	 4.968462	 1.518543	-9.347576	 5.168945	 0.703820	 2.021906
-0.000377	 0.019762	 1.271083	-0.001207	 0.016147	-0.064103	-12.328290	-1.624456	 179.793000	 1.470993	-12.138370	-0.708959	-4.340662	 71.597530	-2.042172	-2.385833	 28.452760	 0.000004	 12.211380	-2.176646	-179.642200	-1.448445	-12.856310	 0.738465	 4.336679	 71.779700	 1.883997	 2.384658	 28.388730	 0.000004	 1.370050	 1.822379	 0.063057	 0.760629	 6.800523	 0.249499	-2.221316	-8.726543	-0.590744	-91.776210	 78.527450	-180.000000	 70.544740	 46.080390	-53.201950	-8.045485	 2.381655	-5.956297	-30.399330	-16.738850	-4.496309	-2.635965	 4.993658	 6.788941	-5.165319	 0.784187	 3.516649	-5.225038	 0.466231	 0.424329	-0.000002	-3.783157	-0.089647	-2.067306	 3.064521	 0.055291	 89.782100	 78.203920	 180.000000	-31.886620	 23.366000	 70.535400	-12.723100	 0.651946	 12.461380	 18.014720	-22.922150	-1.301184	 6.112037	 4.509576	-0.364401	 4.968462	 1.518543	-9.347576	 5.168945	 0.703820	 2.021906
